<?xml version="1.0" encoding="UTF-8"?>
<svg xmlns="http://www.w3.org/2000/svg" width="1024" height="1024" viewBox="0 0 512 512">
  <rect x="0" y="0" width="512" height="512" fill="#1A1E2B"/>
  <g transform="translate(0.000000,512.000000) scale(0.100000,-0.100000)"
fill="#ffffff" stroke="none">
<path d="M3065 3624 c-281 -120 -316 -137 -326 -156 -6 -11 -22 -60 -37 -111
l-27 -92 -418 -5 c-400 -5 -419 -6 -433 -24 -8 -11 -14 -25 -14 -32 0 -6 18
-177 40 -380 21 -203 62 -585 90 -849 28 -264 56 -493 62 -508 23 -58 17 -57
446 -57 429 0 428 0 450 58 6 15 13 54 16 87 7 75 85 833 131 1270 41 388 41
389 15 415 -18 18 -33 20 -135 20 -63 0 -115 1 -115 3 0 13 34 114 40 121 5 5
107 50 227 100 193 81 219 95 228 119 7 21 6 35 -6 55 -25 45 -64 39 -234 -34z
m-421 -466 c-4 -13 -20 -65 -35 -116 -16 -51 -31 -97 -34 -102 -4 -6 -121 -10
-300 -10 -225 0 -294 -3 -297 -12 -5 -13 117 -1263 127 -1306 3 -13 18 -35 32
-48 l26 -24 278 0 c187 0 286 4 303 11 42 19 53 62 75 304 12 127 40 414 62
639 22 225 38 415 35 422 -4 11 -30 14 -107 14 -89 0 -100 2 -95 16 3 9 20 65
38 125 l32 109 108 0 c70 0 108 -4 108 -11 0 -33 -172 -1664 -176 -1671 -6 -9
-754 -12 -754 -3 0 3 -16 155 -35 338 -20 182 -51 481 -70 662 -44 414 -63
588 -70 643 l-6 42 381 0 381 0 -7 -22z"/>
</g>
</svg>
